<svg width="241" height="241" viewBox="0 0 241 241" fill="none" xmlns="http://www.w3.org/2000/svg">
<g clip-path="url(#clip0_2068_686)">
<rect x="0.158203" y="0.436768" width="240" height="240" rx="51" fill="white" style="mix-blend-mode:hue"/>
<path d="M132.041 43.6584C132.041 49.6032 130.395 54.2967 127.11 57.7385C125.152 59.7902 122.719 61.2253 119.815 62.054C116.609 62.5354 112.477 62.4085 110.769 62.4084C101.695 62.4084 94.6758 63.5343 87.6357 66.9758C80.7522 70.4177 75.3546 75.4257 71.4434 81.9963C67.5325 88.4106 65.5752 96.3889 65.5752 105.932V112.503H42.1084V135.164H65.5752V240.437H48.1553C21.6465 240.436 0.158599 218.946 0.158203 192.437V48.4368C0.158203 21.9271 21.6485 0.436768 48.1582 0.436768H132.041V43.6584ZM192.158 0.436768C218.667 0.437558 240.158 21.9276 240.158 48.4368V192.437C240.158 218.946 218.665 240.437 192.155 240.437H91.8604V135.164H121.069V112.503H91.8604V105.932C91.8604 98.5788 93.9731 93.3373 98.1973 90.2083C102.421 86.9236 108.119 85.4446 115.093 85.2805H119.648C119.659 85.3073 119.666 85.3245 119.666 85.3245H131.965L132.041 148.324C132.041 161.935 135.716 172.496 143.068 180.006C150.421 187.515 160.749 191.271 174.047 191.271C176.08 191.271 178.428 191.115 181.087 190.802C183.746 190.489 186.174 190.177 188.364 189.865V167.101C186.957 167.257 185.469 167.413 183.905 167.57C182.342 167.726 180.932 167.804 179.681 167.804C174.675 167.804 170.604 167.021 167.476 165.457C164.347 163.737 162.078 161.389 160.67 158.417C159.262 155.288 158.558 151.533 158.558 147.153V85.5061H187.424V62.9036H158.558V0.436768H192.158Z" fill="#764AE2"/>
</g>
<defs>
<clipPath id="clip0_2068_686">
<rect x="0.158203" y="0.436768" width="240" height="240" rx="51" fill="white"/>
</clipPath>
</defs>
</svg>
